<?xml version="1.0" encoding="UTF-8" standalone="no"?>
<svg
   xmlns:dc="http://purl.org/dc/elements/1.1/"
   xmlns:cc="http://creativecommons.org/ns#"
   xmlns:rdf="http://www.w3.org/1999/02/22-rdf-syntax-ns#"
   xmlns:svg="http://www.w3.org/2000/svg"
   xmlns="http://www.w3.org/2000/svg"
   xmlns:xlink="http://www.w3.org/1999/xlink"
   xmlns:sodipodi="http://sodipodi.sourceforge.net/DTD/sodipodi-0.dtd"
   xmlns:inkscape="http://www.inkscape.org/namespaces/inkscape"
   version="1.1"
   id="Layer_1"
   x="0px"
   y="0px"
   viewBox="0 0 16 16"
   xml:space="preserve"
   sodipodi:docname="file-rebarconfig.svg"
   width="16"
   height="16"
   inkscape:version="1.0.2-2 (e86c870879, 2021-01-15)"><metadata
   id="metadata369"><rdf:RDF><cc:Work
       rdf:about=""><dc:format>image/svg+xml</dc:format><dc:type
         rdf:resource="http://purl.org/dc/dcmitype/StillImage" /><dc:title /></cc:Work></rdf:RDF></metadata><defs
   id="defs367"><linearGradient
     inkscape:collect="always"
     id="linearGradient1021"><stop
       style="stop-color:#000000;stop-opacity:0.4660767"
       offset="0"
       id="stop1017" /><stop
       style="stop-color:#000000;stop-opacity:0"
       offset="1"
       id="stop1019" /></linearGradient><radialGradient
     inkscape:collect="always"
     xlink:href="#linearGradient1021"
     id="radialGradient1023"
     cx="8.4859915"
     cy="7.4263253"
     fx="8.4859915"
     fy="7.4263253"
     r="8.0452738"
     gradientTransform="matrix(0.75311077,-0.7996935,0.86602957,0.81562854,-4.3363174,8.1607933)"
     gradientUnits="userSpaceOnUse" /></defs><sodipodi:namedview
   pagecolor="#ffffff"
   bordercolor="#666666"
   borderopacity="1"
   objecttolerance="10"
   gridtolerance="10"
   guidetolerance="10"
   inkscape:pageopacity="0"
   inkscape:pageshadow="2"
   inkscape:window-width="2560"
   inkscape:window-height="1417"
   id="namedview365"
   showgrid="false"
   inkscape:zoom="40.913241"
   inkscape:cx="12.755877"
   inkscape:cy="11.517517"
   inkscape:window-x="-8"
   inkscape:window-y="-8"
   inkscape:window-maximized="1"
   inkscape:current-layer="Layer_1"
   inkscape:document-rotation="0"
   scale-x="1" />
<style
   type="text/css"
   id="style2">
	.st0{fill:#E2E2E2;}
	.st1{fill:#BBBDBF;}
	.st2{fill:url(#SVGID_1_);}
	.st3{fill:url(#SVGID_2_);}
	.st4{fill:url(#SVGID_3_);}
	.st5{fill:none;stroke:#FFFFFF;stroke-width:0.5;stroke-miterlimit:10;}
	.st6{fill:#FFFFFF;}
	.st7{fill:url(#SVGID_4_);stroke:#DD313E;stroke-width:0.2;stroke-miterlimit:10;}
	.st8{fill:url(#SVGID_5_);stroke:#DD313E;stroke-width:0.2;stroke-miterlimit:10;}
	.st9{fill:url(#SVGID_6_);}
	.st10{fill:#DD313E;}
	.st11{fill:url(#SVGID_7_);}
	.st12{fill:url(#SVGID_8_);}
	.st13{fill:url(#SVGID_9_);}
	.st14{fill:#E6E7E8;}
	.st15{fill:url(#SVGID_10_);}
	.st16{fill:url(#SVGID_11_);}
	.st17{fill:url(#SVGID_12_);}
</style>
<rect
   style="color:#000000;overflow:visible;fill:url(#radialGradient1023);stroke:none;stroke-width:1;stroke-linecap:round;stroke-miterlimit:4;stroke-dasharray:none;stroke-dashoffset:4.87559;stop-color:#000000;fill-opacity:1"
   id="rect1020"
   width="16.090548"
   height="15.934999"
   x="-0.03456616"
   y="0.01728308" /><g
   id="g362"
   transform="matrix(0.0785419,0,0,0.0785419,0,0.31109542)">
	<g
   id="g8">
		<polygon
   class="st0"
   points="0.3,112.5 101.9,79.4 203.3,112.5 101.8,142.2 "
   id="polygon4" />
		<path
   class="st1"
   d="m 101.8,79.5 101.1,33 -101.1,29.6 -101.1,-29.6 101.1,-33 m 0,-0.2 L 0,112.5 101.8,142.3 203.6,112.5 Z"
   id="path6" />
	</g>
	<g
   id="g25">
		<linearGradient
   id="SVGID_1_"
   gradientUnits="userSpaceOnUse"
   x1="50.912102"
   y1="112.569"
   x2="50.912102"
   y2="197.0163">
			<stop
   offset="0"
   style="stop-color:#D1D1D1"
   id="stop10" />
			<stop
   offset="0.3927"
   style="stop-color:#CECECE"
   id="stop12" />
			<stop
   offset="0.6668"
   style="stop-color:#C5C5C5"
   id="stop14" />
			<stop
   offset="0.9042"
   style="stop-color:#B6B6B6"
   id="stop16" />
			<stop
   offset="1"
   style="stop-color:#ADADAD"
   id="stop18" />
		</linearGradient>
		<polygon
   class="st2"
   points="0,167.2 0.1,112.6 101.8,142.4 101.7,197 "
   id="polygon21"
   style="fill:url(#SVGID_1_)" />
		<path
   class="st1"
   d="m 0.1,112.7 101.5,29.7 v 54.5 L 0.1,167.2 V 112.7 M 0,112.5 v 54.8 l 101.8,29.8 v -54.8 z"
   id="path23" />
	</g>
	<g
   id="g40">
		<linearGradient
   id="SVGID_2_"
   gradientUnits="userSpaceOnUse"
   x1="152.7361"
   y1="196.9821"
   x2="152.7361"
   y2="112.6032">
			<stop
   offset="0"
   style="stop-color:#D4D4D4"
   id="stop27" />
			<stop
   offset="0.4558"
   style="stop-color:#D1D1D1"
   id="stop29" />
			<stop
   offset="0.7735"
   style="stop-color:#C8C8C8"
   id="stop31" />
			<stop
   offset="1"
   style="stop-color:#BCBCBC"
   id="stop33" />
		</linearGradient>
		<polygon
   class="st3"
   points="101.9,142.4 203.5,112.6 203.5,167.2 101.9,197 "
   id="polygon36"
   style="fill:url(#SVGID_2_)" />
		<path
   class="st1"
   d="m 203.4,112.7 v 54.4 L 102,196.8 v -54.4 l 101.4,-29.7 m 0.2,-0.2 -101.8,29.8 v 54.8 l 101.8,-29.8 z"
   id="path38" />
	</g>
	<linearGradient
   id="SVGID_3_"
   gradientUnits="userSpaceOnUse"
   x1="103.5732"
   y1="65.269897"
   x2="103.5732"
   y2="12.331">
		<stop
   offset="0"
   style="stop-color:#CADAD9"
   id="stop42" />
		<stop
   offset="1"
   style="stop-color:#E6E7E8"
   id="stop44" />
	</linearGradient>
	<path
   class="st4"
   d="M 99.1,1.7 V 87 c 0,1.3 2,2.4 4.5,2.4 2.5,0 4.5,-1.1 4.5,-2.4 V 1.7 Z"
   id="path47"
   style="fill:url(#SVGID_3_)" />
	<path
   class="st5"
   d="m 108.7,17.3 c 0,1.3 -2.3,2.4 -5.1,2.4 -2.8,0 -5.1,-1.1 -5.1,-2.4"
   id="path49" />
	<path
   class="st5"
   d="m 108.7,24.1 c 0,1.3 -2.3,2.4 -5.1,2.4 -2.8,0 -5.1,-1.1 -5.1,-2.4"
   id="path51" />
	<path
   class="st5"
   d="m 108.7,30.8 c 0,1.3 -2.3,2.4 -5.1,2.4 -2.8,0 -5.1,-1.1 -5.1,-2.4"
   id="path53" />
	<g
   id="g57">
		<path
   class="st6"
   d="m 99.1,7.7 c 0.2,0.4 0.9,0.9 1.7,1 0.9,0.1 2.1,0 3.3,-0.3 2.5,-0.7 4.1,-2 3.9,-3.3 V 4.7 c 0.2,0.1 0.2,0.1 0.4,0.2 0,0 0.1,0.1 0.1,0.1 0.4,1.4 -1.5,3.1 -4.3,3.9 -2.8,0.8 -5.3,0.4 -5.7,-1 C 98.4,7.6 99,7.4 99,7.4"
   id="path55" />
	</g>
	<g
   id="g61">
		<path
   class="st6"
   d="m 99.1,13.3 c 0.2,0.4 0.9,0.9 1.7,1 0.9,0.1 2.1,0 3.3,-0.3 2.5,-0.7 4.1,-2 3.9,-3.3 v -0.4 c 0.2,0.1 0.2,0.1 0.4,0.2 0,0 0.1,0.1 0.1,0.1 0.4,1.4 -1.5,3.1 -4.3,3.9 -2.8,0.8 -5.3,0.4 -5.7,-1 0,-0.3 0.5,-0.5 0.6,-0.5"
   id="path59" />
	</g>
	<g
   id="g65">
		<path
   class="st6"
   d="m 99.1,18.9 c 0.2,0.4 0.9,0.9 1.7,1 0.9,0.1 2.1,0 3.3,-0.3 2.5,-0.7 4.1,-2 3.9,-3.3 v -0.4 c 0.2,0.1 0.2,0.1 0.4,0.2 0,0 0.1,0.1 0.1,0.1 0.4,1.4 -1.5,3.1 -4.3,3.9 -2.8,0.8 -5.3,0.4 -5.7,-1 -0.1,-0.3 0.5,-0.5 0.5,-0.5"
   id="path63" />
	</g>
	<g
   id="g69">
		<path
   class="st6"
   d="m 99.1,24.5 c 0.2,0.4 0.9,0.9 1.7,1 0.9,0.1 2.1,0 3.3,-0.3 2.5,-0.7 4.1,-2 3.9,-3.3 v -0.4 c 0.2,0.1 0.2,0.1 0.4,0.2 0,0 0.1,0.1 0.1,0.1 0.4,1.4 -1.5,3.1 -4.3,3.9 -2.8,0.8 -5.3,0.4 -5.7,-1 -0.1,-0.3 0.5,-0.5 0.5,-0.5"
   id="path67" />
	</g>
	<g
   id="g73">
		<path
   class="st6"
   d="m 99.1,30.1 c 0.2,0.4 0.9,0.9 1.7,1 0.9,0.1 2.1,0 3.3,-0.3 2.5,-0.7 4.1,-2 3.9,-3.3 v -0.4 c 0.2,0.1 0.2,0.1 0.4,0.2 0,0 0.1,0.1 0.1,0.1 0.4,1.4 -1.5,3.1 -4.3,3.9 -2.8,0.8 -5.3,0.4 -5.7,-1 C 98.4,30 99,29.8 99,29.8"
   id="path71" />
	</g>
	<g
   id="g77">
		<path
   class="st6"
   d="m 99.1,35.7 c 0.2,0.4 0.9,0.9 1.7,1 0.9,0.1 2.1,0 3.3,-0.3 2.5,-0.7 4.1,-2 3.9,-3.3 v -0.4 c 0.2,0.1 0.2,0.1 0.4,0.2 0,0 0.1,0.1 0.1,0.1 0.4,1.4 -1.5,3.1 -4.3,3.9 -2.8,0.8 -5.3,0.4 -5.7,-1 -0.1,-0.3 0.5,-0.5 0.5,-0.5"
   id="path75" />
	</g>
	<g
   id="g81">
		<path
   class="st6"
   d="m 99.1,41.3 c 0.2,0.4 0.9,0.9 1.7,1 0.9,0.1 2.1,0 3.3,-0.3 2.5,-0.7 4.1,-2 3.9,-3.3 v -0.4 c 0.2,0.1 0.2,0.1 0.4,0.2 0,0 0.1,0.1 0.1,0.1 0.4,1.4 -1.5,3.1 -4.3,3.9 -2.8,0.8 -5.3,0.4 -5.7,-1 0,-0.3 0.5,-0.5 0.6,-0.5"
   id="path79" />
	</g>
	<g
   id="g85">
		<path
   class="st6"
   d="m 99.1,46.9 c 0.2,0.4 0.9,0.9 1.7,1 0.9,0.1 2.1,0 3.3,-0.3 2.5,-0.7 4.1,-2 3.9,-3.3 v -0.4 c 0.2,0.1 0.2,0.1 0.4,0.2 0,0 0.1,0.1 0.1,0.1 0.4,1.4 -1.5,3.1 -4.3,3.9 -2.8,0.8 -5.3,0.4 -5.7,-1 -0.1,-0.3 0.5,-0.5 0.5,-0.5"
   id="path83" />
	</g>
	<g
   id="g89">
		<path
   class="st6"
   d="m 99.1,52.5 c 0.2,0.4 0.9,0.9 1.7,1 0.9,0.1 2.1,0 3.3,-0.3 2.5,-0.7 4.1,-2 3.9,-3.3 v -0.4 c 0.2,0.1 0.2,0.1 0.4,0.2 0,0 0.1,0.1 0.1,0.1 0.4,1.4 -1.5,3.1 -4.3,3.9 -2.8,0.8 -5.3,0.4 -5.7,-1 -0.1,-0.3 0.5,-0.5 0.5,-0.5"
   id="path87" />
	</g>
	<g
   id="g93">
		<path
   class="st6"
   d="m 99.1,58.1 c 0.2,0.4 0.9,0.9 1.7,1 0.9,0.1 2.1,0 3.3,-0.3 2.5,-0.7 4.1,-2 3.9,-3.3 v -0.4 c 0.2,0.1 0.2,0.1 0.4,0.2 0,0 0.1,0.1 0.1,0.1 0.4,1.4 -1.5,3.1 -4.3,3.9 -2.8,0.8 -5.3,0.4 -5.7,-1 C 98.4,58 99,57.8 99,57.8"
   id="path91" />
	</g>
	<g
   id="g97">
		<path
   class="st6"
   d="m 99.1,63.7 c 0.2,0.4 0.9,0.9 1.7,1 0.9,0.1 2.1,0 3.3,-0.3 2.5,-0.7 4.1,-2 3.9,-3.3 v -0.4 c 0.2,0.1 0.2,0.1 0.4,0.2 0,0 0.1,0.1 0.1,0.1 0.4,1.4 -1.5,3.1 -4.3,3.9 -2.8,0.8 -5.3,0.4 -5.7,-1 -0.1,-0.3 0.5,-0.5 0.5,-0.5"
   id="path95" />
	</g>
	<g
   id="g101">
		<path
   class="st6"
   d="m 99.1,69.3 c 0.2,0.4 0.9,0.9 1.7,1 0.9,0.1 2.1,0 3.3,-0.3 2.5,-0.7 4.1,-2 3.9,-3.3 v -0.4 c 0.2,0.1 0.2,0.1 0.4,0.2 0,0 0.1,0.1 0.1,0.1 0.4,1.4 -1.5,3.1 -4.3,3.9 -2.8,0.8 -5.3,0.4 -5.7,-1 0,-0.3 0.5,-0.5 0.6,-0.5"
   id="path99" />
	</g>
	<g
   id="g105">
		<path
   class="st6"
   d="m 99.1,74.9 c 0.2,0.4 0.9,0.9 1.7,1 0.9,0.1 2.1,0 3.3,-0.3 2.5,-0.7 4.1,-2 3.9,-3.3 v -0.4 c 0.2,0.1 0.2,0.1 0.4,0.2 0,0 0.1,0.1 0.1,0.1 0.4,1.4 -1.5,3.1 -4.3,3.9 -2.8,0.8 -5.3,0.4 -5.7,-1 -0.1,-0.3 0.5,-0.5 0.5,-0.5"
   id="path103" />
	</g>
	<g
   id="g109">
		<path
   class="st6"
   d="m 99.1,80.5 c 0.2,0.4 0.9,0.9 1.7,1 0.9,0.1 2.1,0 3.3,-0.3 2.5,-0.7 4.1,-2 3.9,-3.3 v -0.4 c 0.2,0.1 0.2,0.1 0.4,0.2 0,0 0.1,0.1 0.1,0.1 0.4,1.4 -1.5,3.1 -4.3,3.9 -2.8,0.8 -5.3,0.4 -5.7,-1 -0.1,-0.3 0.5,-0.5 0.5,-0.5"
   id="path107" />
	</g>
	<g
   id="g113">
		<path
   class="st6"
   d="m 99.1,86.1 c 0.2,0.4 0.9,0.9 1.7,1 0.9,0.1 2.1,0 3.3,-0.3 2.5,-0.7 4.1,-2 3.9,-3.3 v -0.4 c 0.2,0.1 0.2,0.1 0.4,0.2 0,0 0.1,0.1 0.1,0.1 0.4,1.4 -1.5,3.1 -4.3,3.9 -2.8,0.8 -5.3,0.4 -5.7,-1 C 98.4,86 99,85.8 99,85.8"
   id="path111" />
	</g>
	<path
   class="st5"
   d="M 103.6,20"
   id="path115" />
	<path
   class="st5"
   d="M 103.6,26.8"
   id="path117" />
	<path
   class="st5"
   d="m 108.7,51.1 c 0,1.3 -2.3,2.4 -5.1,2.4 -2.8,0 -5.1,-1.1 -5.1,-2.4"
   id="path119" />
	<path
   class="st5"
   d="m 108.7,57.9 c 0,1.3 -2.3,2.4 -5.1,2.4 -2.8,0 -5.1,-1.1 -5.1,-2.4"
   id="path121" />
	<path
   class="st5"
   d="m 108.7,64.7 c 0,1.3 -2.3,2.4 -5.1,2.4 -2.8,0 -5.1,-1.1 -5.1,-2.4"
   id="path123" />
	<g
   id="g166">
		
			<linearGradient
   id="SVGID_4_"
   gradientUnits="userSpaceOnUse"
   x1="45.4758"
   y1="64.914902"
   x2="156.3792"
   y2="64.914902"
   gradientTransform="matrix(0.995,-0.0046,-0.0046,0.982,1.318,4.9399)">
			<stop
   offset="0"
   style="stop-color:#CC1E2D"
   id="stop125" />
			<stop
   offset="0.3792"
   style="stop-color:#E62728"
   id="stop127" />
			<stop
   offset="0.7412"
   style="stop-color:#F92D25"
   id="stop129" />
			<stop
   offset="1"
   style="stop-color:#FF2F24"
   id="stop131" />
		</linearGradient>
		<path
   class="st7"
   d="m 151.1,90.6 v 0 c 2.4,-5 4.2,-10.6 5.5,-16.7 L 137.7,71 C 134.9,82.1 129.3,93.3 117.8,97 101,102.3 89.8,90 84,71.6 L 149.5,52 C 146.4,40.9 136.8,27.7 128.9,22.6 119.3,16.4 106.9,10.3 83.4,17.5 57.7,25.3 49.8,47.8 49.8,47.8 c -4.3,10.7 -4.8,23.1 -0.7,36 4.6,14.6 13.1,25.9 24.6,31.5 10.2,4.9 25.2,10.4 45.3,4.1 20,-6.4 32.1,-28.8 32.1,-28.8 M 79.7,55.5 c -2,-8.6 2.9,-16.3 10.6,-18.8 7.8,-2.5 18.9,0.3 21.7,8.6 z"
   id="path134"
   style="fill:url(#SVGID_4_)" />
		<linearGradient
   id="SVGID_5_"
   gradientUnits="userSpaceOnUse"
   x1="104.4036"
   y1="125.4655"
   x2="104.4036"
   y2="15.8897">
			<stop
   offset="0"
   style="stop-color:#A91E2D"
   id="stop136" />
			<stop
   offset="0.2601"
   style="stop-color:#C9242A"
   id="stop138" />
			<stop
   offset="0.559"
   style="stop-color:#E62A27"
   id="stop140" />
			<stop
   offset="0.8161"
   style="stop-color:#F92E25"
   id="stop142" />
			<stop
   offset="1"
   style="stop-color:#FF2F24"
   id="stop144" />
		</linearGradient>
		<path
   class="st8"
   d="m 154.9,93.4 v 0 c 2.4,-5.1 4.3,-10.8 5.6,-17 l -19.1,-3 c -2.8,11.3 -8.5,22.7 -20.2,26.4 -17.1,5.4 -28.4,-7.1 -34.4,-25.9 L 150.6,53.6 C 147.5,42.3 140.5,29.3 132.5,24.1 122.7,17.8 110.4,12.2 86.2,18.8 59.6,26.1 52,49.7 52,49.7 c -4.4,10.9 -4.9,23.5 -0.7,36.6 4.7,14.9 13.3,26.4 25,32 10.4,5 25.6,10.7 46,4.2 20.3,-6.4 32.6,-29.1 32.6,-29.1 M 82.4,57.6 c -2,-8.7 2.9,-16.6 10.7,-19.1 7.9,-2.5 15.5,1.4 18.4,9.8 z"
   id="path147"
   style="fill:url(#SVGID_5_)" />
		<g
   id="g164">
			<linearGradient
   id="SVGID_6_"
   gradientUnits="userSpaceOnUse"
   x1="138.16209"
   y1="73.6894"
   x2="159.9648"
   y2="73.6894">
				<stop
   offset="0"
   style="stop-color:#A91E2D"
   id="stop149" />
				<stop
   offset="0.2601"
   style="stop-color:#C9242A"
   id="stop151" />
				<stop
   offset="0.559"
   style="stop-color:#E62A27"
   id="stop153" />
				<stop
   offset="0.8161"
   style="stop-color:#F92E25"
   id="stop155" />
				<stop
   offset="1"
   style="stop-color:#FF2F24"
   id="stop157" />
			</linearGradient>
			<polygon
   class="st9"
   points="141.3,73.3 138.2,71.2 156.6,74 160,76.2 "
   id="polygon160"
   style="fill:url(#SVGID_6_)" />
			<path
   class="st10"
   d="m 138.6,71.3 17.9,2.8 3,1.9 -18.2,-2.8 -2.7,-1.9 m -0.9,-0.3 3.5,2.4 19.1,3 -3.8,-2.5 z"
   id="path162" />
		</g>
	</g>
	<linearGradient
   id="SVGID_7_"
   gradientUnits="userSpaceOnUse"
   x1="16.8496"
   y1="91.152702"
   x2="16.8496"
   y2="38.213799">
		<stop
   offset="0"
   style="stop-color:#CADAD9"
   id="stop168" />
		<stop
   offset="1"
   style="stop-color:#E6E7E8"
   id="stop170" />
	</linearGradient>
	<path
   class="st11"
   d="m 12.3,27.6 v 85.3 c 0,1.3 2,2.4 4.5,2.4 2.5,0 4.5,-1.1 4.5,-2.4 V 27.6 Z"
   id="path173"
   style="fill:url(#SVGID_7_)" />
	<linearGradient
   id="SVGID_8_"
   gradientUnits="userSpaceOnUse"
   x1="188.34959"
   y1="91.152702"
   x2="188.34959"
   y2="38.213799">
		<stop
   offset="0"
   style="stop-color:#CADAD9"
   id="stop175" />
		<stop
   offset="1"
   style="stop-color:#E6E7E8"
   id="stop177" />
	</linearGradient>
	<path
   class="st12"
   d="m 183.8,27.6 v 85.3 c 0,1.3 2,2.4 4.5,2.4 2.5,0 4.5,-1.1 4.5,-2.4 V 27.6 Z"
   id="path180"
   style="fill:url(#SVGID_8_)" />
	<g
   id="g191">
		<linearGradient
   id="SVGID_9_"
   gradientUnits="userSpaceOnUse"
   x1="188.34959"
   y1="28.3543"
   x2="188.34959"
   y2="26.3785">
			<stop
   offset="0"
   style="stop-color:#CADAD9"
   id="stop182" />
			<stop
   offset="1"
   style="stop-color:#E6E7E8"
   id="stop184" />
		</linearGradient>
		<path
   class="st13"
   d="m 188.3,29.3 c -2.4,0 -4.4,-0.7 -4.4,-1.6 0,-0.9 2,-1.6 4.4,-1.6 2.4,0 4.4,0.7 4.4,1.6 0,0.9 -2,1.6 -4.4,1.6 z"
   id="path187"
   style="fill:url(#SVGID_9_)" />
		<path
   class="st14"
   d="m 188.3,26.1 c 2.5,0 4.3,0.8 4.3,1.5 0,0.7 -1.8,1.5 -4.3,1.5 -2.5,0 -4.3,-0.8 -4.3,-1.5 0,-0.7 1.8,-1.5 4.3,-1.5 m 0,-0.2 c -2.5,0 -4.5,0.8 -4.5,1.7 0,0.9 2,1.7 4.5,1.7 2.5,0 4.5,-0.8 4.5,-1.7 0,-0.9 -2,-1.7 -4.5,-1.7 z"
   id="path189" />
	</g>
	<g
   id="g202">
		<linearGradient
   id="SVGID_10_"
   gradientUnits="userSpaceOnUse"
   x1="103.5735"
   y1="2.4714999"
   x2="103.5735"
   y2="0.4957">
			<stop
   offset="0"
   style="stop-color:#CADAD9"
   id="stop193" />
			<stop
   offset="1"
   style="stop-color:#E6E7E8"
   id="stop195" />
		</linearGradient>
		<path
   class="st15"
   d="m 103.6,3.4 c -2.4,0 -4.4,-0.7 -4.4,-1.6 0,-0.9 2,-1.6 4.4,-1.6 2.4,0 4.4,0.7 4.4,1.6 0,0.9 -2,1.6 -4.4,1.6 z"
   id="path198"
   style="fill:url(#SVGID_10_)" />
		<path
   class="st14"
   d="m 103.6,0.2 c 2.5,0 4.3,0.8 4.3,1.5 0,0.7 -1.8,1.5 -4.3,1.5 -2.5,0 -4.3,-0.8 -4.3,-1.5 0,-0.7 1.7,-1.5 4.3,-1.5 m 0,-0.2 c -2.5,0 -4.5,0.8 -4.5,1.7 0,0.9 2,1.7 4.5,1.7 2.5,0 4.5,-0.8 4.5,-1.7 0,-0.9 -2,-1.7 -4.5,-1.7 z"
   id="path200" />
	</g>
	<g
   id="g213">
		<linearGradient
   id="SVGID_11_"
   gradientUnits="userSpaceOnUse"
   x1="16.8496"
   y1="28.325899"
   x2="16.8496"
   y2="26.350201">
			<stop
   offset="0"
   style="stop-color:#CADAD9"
   id="stop204" />
			<stop
   offset="1"
   style="stop-color:#E6E7E8"
   id="stop206" />
		</linearGradient>
		<path
   class="st16"
   d="m 16.8,29.2 c -2.4,0 -4.4,-0.7 -4.4,-1.6 0,-0.9 2,-1.6 4.4,-1.6 2.4,0 4.4,0.7 4.4,1.6 0,0.9 -2,1.6 -4.4,1.6 z"
   id="path209"
   style="fill:url(#SVGID_11_)" />
		<path
   class="st14"
   d="m 16.8,26.1 c 2.5,0 4.3,0.8 4.3,1.5 0,0.7 -1.8,1.5 -4.3,1.5 -2.5,0 -4.3,-0.8 -4.3,-1.5 0,-0.7 1.8,-1.5 4.3,-1.5 m 0,-0.2 c -2.5,0 -4.5,0.8 -4.5,1.7 0,0.9 2,1.7 4.5,1.7 2.5,0 4.5,-0.8 4.5,-1.7 0,-0.9 -2,-1.7 -4.5,-1.7 z"
   id="path211" />
	</g>
	<g
   id="g217">
		<path
   class="st6"
   d="m 183.8,33.3 c 0.2,0.4 0.9,0.9 1.7,1 0.9,0.1 2.1,0 3.3,-0.3 2.5,-0.7 4.1,-2 3.9,-3.3 v -0.4 c 0.2,0.1 0.2,0.1 0.4,0.2 0,0 0.1,0.1 0.1,0.1 0.4,1.4 -1.5,3.1 -4.3,3.9 -2.8,0.8 -5.3,0.4 -5.7,-1 -0.1,-0.3 0.5,-0.5 0.5,-0.5"
   id="path215" />
	</g>
	<g
   id="g221">
		<path
   class="st6"
   d="m 183.8,38.9 c 0.2,0.4 0.9,0.9 1.7,1 0.9,0.1 2.1,0 3.3,-0.3 2.5,-0.7 4.1,-2 3.9,-3.3 v -0.4 c 0.2,0.1 0.2,0.1 0.4,0.2 0,0 0.1,0.1 0.1,0.1 0.4,1.4 -1.5,3.1 -4.3,3.9 -2.8,0.8 -5.3,0.4 -5.7,-1 -0.1,-0.3 0.5,-0.5 0.5,-0.5"
   id="path219" />
	</g>
	<g
   id="g225">
		<path
   class="st6"
   d="m 183.8,44.5 c 0.2,0.4 0.9,0.9 1.7,1 0.9,0.1 2.1,0 3.3,-0.3 2.5,-0.7 4.1,-2 3.9,-3.3 v -0.4 c 0.2,0.1 0.2,0.1 0.4,0.2 0,0 0.1,0.1 0.1,0.1 0.4,1.4 -1.5,3.1 -4.3,3.9 -2.8,0.8 -5.3,0.4 -5.7,-1 -0.1,-0.3 0.5,-0.5 0.5,-0.5"
   id="path223" />
	</g>
	<g
   id="g229">
		<path
   class="st6"
   d="m 183.8,50.1 c 0.2,0.4 0.9,0.9 1.7,1 0.9,0.1 2.1,0 3.3,-0.3 2.5,-0.7 4.1,-2 3.9,-3.3 v -0.4 c 0.2,0.1 0.2,0.1 0.4,0.2 0,0 0.1,0.1 0.1,0.1 0.4,1.4 -1.5,3.1 -4.3,3.9 -2.8,0.8 -5.3,0.4 -5.7,-1 -0.1,-0.3 0.5,-0.5 0.5,-0.5"
   id="path227" />
	</g>
	<g
   id="g233">
		<path
   class="st6"
   d="m 183.8,55.7 c 0.2,0.4 0.9,0.9 1.7,1 0.9,0.1 2.1,0 3.3,-0.3 2.5,-0.7 4.1,-2 3.9,-3.3 v -0.4 c 0.2,0.1 0.2,0.1 0.4,0.2 0,0 0.1,0.1 0.1,0.1 0.4,1.4 -1.5,3.1 -4.3,3.9 -2.8,0.8 -5.3,0.4 -5.7,-1 -0.1,-0.3 0.5,-0.5 0.5,-0.5"
   id="path231" />
	</g>
	<g
   id="g237">
		<path
   class="st6"
   d="m 183.8,61.3 c 0.2,0.4 0.9,0.9 1.7,1 0.9,0.1 2.1,0 3.3,-0.3 2.5,-0.7 4.1,-2 3.9,-3.3 v -0.4 c 0.2,0.1 0.2,0.1 0.4,0.2 0,0 0.1,0.1 0.1,0.1 0.4,1.4 -1.5,3.1 -4.3,3.9 -2.8,0.8 -5.3,0.4 -5.7,-1 -0.1,-0.3 0.5,-0.5 0.5,-0.5"
   id="path235" />
	</g>
	<g
   id="g241">
		<path
   class="st6"
   d="m 183.8,66.9 c 0.2,0.4 0.9,0.9 1.7,1 0.9,0.1 2.1,0 3.3,-0.3 2.5,-0.7 4.1,-2 3.9,-3.3 v -0.4 c 0.2,0.1 0.2,0.1 0.4,0.2 0,0 0.1,0.1 0.1,0.1 0.4,1.4 -1.5,3.1 -4.3,3.9 -2.8,0.8 -5.3,0.4 -5.7,-1 -0.1,-0.3 0.5,-0.5 0.5,-0.5"
   id="path239" />
	</g>
	<g
   id="g245">
		<path
   class="st6"
   d="m 183.8,72.5 c 0.2,0.4 0.9,0.9 1.7,1 0.9,0.1 2.1,0 3.3,-0.3 2.5,-0.7 4.1,-2 3.9,-3.3 v -0.4 c 0.2,0.1 0.2,0.1 0.4,0.2 0,0 0.1,0.1 0.1,0.1 0.4,1.4 -1.5,3.1 -4.3,3.9 -2.8,0.8 -5.3,0.4 -5.7,-1 -0.1,-0.3 0.5,-0.5 0.5,-0.5"
   id="path243" />
	</g>
	<g
   id="g249">
		<path
   class="st6"
   d="m 183.8,78.1 c 0.2,0.4 0.9,0.9 1.7,1 0.9,0.1 2.1,0 3.3,-0.3 2.5,-0.7 4.1,-2 3.9,-3.3 v -0.4 c 0.2,0.1 0.2,0.1 0.4,0.2 0,0 0.1,0.1 0.1,0.1 0.4,1.4 -1.5,3.1 -4.3,3.9 -2.8,0.8 -5.3,0.4 -5.7,-1 -0.1,-0.3 0.5,-0.5 0.5,-0.5"
   id="path247" />
	</g>
	<g
   id="g253">
		<path
   class="st6"
   d="m 183.8,83.7 c 0.2,0.4 0.9,0.9 1.7,1 0.9,0.1 2.1,0 3.3,-0.3 2.5,-0.7 4.1,-2 3.9,-3.3 v -0.4 c 0.2,0.1 0.2,0.1 0.4,0.2 0,0 0.1,0.1 0.1,0.1 0.4,1.4 -1.5,3.1 -4.3,3.9 -2.8,0.8 -5.3,0.4 -5.7,-1 -0.1,-0.3 0.5,-0.5 0.5,-0.5"
   id="path251" />
	</g>
	<g
   id="g257">
		<path
   class="st6"
   d="m 183.8,89.3 c 0.2,0.4 0.9,0.9 1.7,1 0.9,0.1 2.1,0 3.3,-0.3 2.5,-0.7 4.1,-2 3.9,-3.3 v -0.4 c 0.2,0.1 0.2,0.1 0.4,0.2 0,0 0.1,0.1 0.1,0.1 0.4,1.4 -1.5,3.1 -4.3,3.9 -2.8,0.8 -5.3,0.4 -5.7,-1 -0.1,-0.3 0.5,-0.5 0.5,-0.5"
   id="path255" />
	</g>
	<g
   id="g261">
		<path
   class="st6"
   d="m 183.8,94.9 c 0.2,0.4 0.9,0.9 1.7,1 0.9,0.1 2.1,0 3.3,-0.3 2.5,-0.7 4.1,-2 3.9,-3.3 v -0.4 c 0.2,0.1 0.2,0.1 0.4,0.2 0,0 0.1,0.1 0.1,0.1 0.4,1.4 -1.5,3.1 -4.3,3.9 -2.8,0.8 -5.3,0.4 -5.7,-1 -0.1,-0.3 0.5,-0.5 0.5,-0.5"
   id="path259" />
	</g>
	<g
   id="g265">
		<path
   class="st6"
   d="m 183.8,100.5 c 0.2,0.4 0.9,0.9 1.7,1 0.9,0.1 2.1,0 3.3,-0.3 2.5,-0.7 4.1,-2 3.9,-3.3 v -0.4 c 0.2,0.1 0.2,0.1 0.4,0.2 0,0 0.1,0.1 0.1,0.1 0.4,1.4 -1.5,3.1 -4.3,3.9 -2.8,0.8 -5.3,0.4 -5.7,-1 -0.1,-0.3 0.5,-0.5 0.5,-0.5"
   id="path263" />
	</g>
	<g
   id="g269">
		<path
   class="st6"
   d="m 183.8,106.1 c 0.2,0.4 0.9,0.9 1.7,1 0.9,0.1 2.1,0 3.3,-0.3 2.5,-0.7 4.1,-2 3.9,-3.3 v -0.4 c 0.2,0.1 0.2,0.1 0.4,0.2 0,0 0.1,0.1 0.1,0.1 0.4,1.4 -1.5,3.1 -4.3,3.9 -2.8,0.8 -5.3,0.4 -5.7,-1 -0.1,-0.3 0.5,-0.5 0.5,-0.5"
   id="path267" />
	</g>
	<g
   id="g273">
		<path
   class="st6"
   d="m 183.8,111.7 c 0.2,0.4 0.9,0.9 1.7,1 0.9,0.1 2.1,0 3.3,-0.3 2.5,-0.7 4.1,-2 3.9,-3.3 v -0.4 c 0.2,0.1 0.2,0.1 0.4,0.2 0,0 0.1,0.1 0.1,0.1 0.4,1.4 -1.5,3.1 -4.3,3.9 -2.8,0.8 -5.3,0.4 -5.7,-1 -0.1,-0.3 0.5,-0.5 0.5,-0.5"
   id="path271" />
	</g>
	<path
   class="st5"
   d="M 183.2,43.2"
   id="path275" />
	<path
   class="st5"
   d="M 188.3,45.6"
   id="path277" />
	<path
   class="st5"
   d="M 183.2,49.9"
   id="path279" />
	<path
   class="st5"
   d="M 188.3,52.3"
   id="path281" />
	<linearGradient
   id="SVGID_12_"
   gradientUnits="userSpaceOnUse"
   x1="103.5732"
   y1="129.793"
   x2="103.5732"
   y2="111.1384">
		<stop
   offset="0"
   style="stop-color:#E2E2E2"
   id="stop283" />
		<stop
   offset="0.357"
   style="stop-color:#DFE0E0"
   id="stop285" />
		<stop
   offset="0.6062"
   style="stop-color:#D6DADA"
   id="stop287" />
		<stop
   offset="0.8219"
   style="stop-color:#C7D0CF"
   id="stop289" />
		<stop
   offset="0.9704"
   style="stop-color:#B7C6C4"
   id="stop291" />
		<stop
   offset="1"
   style="stop-color:#B4C4C2"
   id="stop293" />
	</linearGradient>
	<path
   class="st17"
   d="m 150.3,120.3 c 0,-4 -23.2,-6.8 -29.7,-8.9 -5,-1.6 -12.8,3.9 -18.8,3.9 -7.3,0 -12.8,-6 -18.5,-3.6 -5.5,2.3 -26.5,4.8 -26.5,8.6 0,5.2 20.9,9.5 46.8,9.5 25.8,0 46.7,-4.3 46.7,-9.5 z"
   id="path296"
   style="fill:url(#SVGID_12_)" />
	<g
   id="g300">
		<path
   class="st6"
   d="m 12.4,33.3 c 0.2,0.4 0.9,0.9 1.7,1 0.9,0.1 2.1,0 3.3,-0.3 2.5,-0.7 4.1,-2 3.9,-3.3 v -0.4 c 0.2,0.1 0.2,0.1 0.4,0.2 0,0 0.1,0.1 0.1,0.1 0.4,1.4 -1.5,3.1 -4.3,3.9 -2.8,0.8 -5.3,0.4 -5.7,-1 -0.1,-0.3 0.5,-0.5 0.5,-0.5"
   id="path298" />
	</g>
	<g
   id="g304">
		<path
   class="st6"
   d="m 12.4,38.9 c 0.2,0.4 0.9,0.9 1.7,1 0.9,0.1 2.1,0 3.3,-0.3 2.5,-0.7 4.1,-2 3.9,-3.3 v -0.4 c 0.2,0.1 0.2,0.1 0.4,0.2 0,0 0.1,0.1 0.1,0.1 0.4,1.4 -1.5,3.1 -4.3,3.9 -2.8,0.8 -5.3,0.4 -5.7,-1 -0.1,-0.3 0.5,-0.5 0.5,-0.5"
   id="path302" />
	</g>
	<g
   id="g308">
		<path
   class="st6"
   d="m 12.4,44.5 c 0.2,0.4 0.9,0.9 1.7,1 0.9,0.1 2.1,0 3.3,-0.3 2.5,-0.7 4.1,-2 3.9,-3.3 v -0.4 c 0.2,0.1 0.2,0.1 0.4,0.2 0,0 0.1,0.1 0.1,0.1 0.4,1.4 -1.5,3.1 -4.3,3.9 -2.8,0.8 -5.3,0.4 -5.7,-1 -0.1,-0.3 0.5,-0.5 0.5,-0.5"
   id="path306" />
	</g>
	<g
   id="g312">
		<path
   class="st6"
   d="m 12.4,50.1 c 0.2,0.4 0.9,0.9 1.7,1 0.9,0.1 2.1,0 3.3,-0.3 2.5,-0.7 4.1,-2 3.9,-3.3 v -0.4 c 0.2,0.1 0.2,0.1 0.4,0.2 0,0 0.1,0.1 0.1,0.1 0.4,1.4 -1.5,3.1 -4.3,3.9 -2.8,0.8 -5.3,0.4 -5.7,-1 -0.1,-0.3 0.5,-0.5 0.5,-0.5"
   id="path310" />
	</g>
	<g
   id="g316">
		<path
   class="st6"
   d="m 12.4,55.7 c 0.2,0.4 0.9,0.9 1.7,1 0.9,0.1 2.1,0 3.3,-0.3 2.5,-0.7 4.1,-2 3.9,-3.3 v -0.4 c 0.2,0.1 0.2,0.1 0.4,0.2 0,0 0.1,0.1 0.1,0.1 0.4,1.4 -1.5,3.1 -4.3,3.9 -2.8,0.8 -5.3,0.4 -5.7,-1 -0.1,-0.3 0.5,-0.5 0.5,-0.5"
   id="path314" />
	</g>
	<g
   id="g320">
		<path
   class="st6"
   d="m 12.4,61.3 c 0.2,0.4 0.9,0.9 1.7,1 0.9,0.1 2.1,0 3.3,-0.3 2.5,-0.7 4.1,-2 3.9,-3.3 v -0.4 c 0.2,0.1 0.2,0.1 0.4,0.2 0,0 0.1,0.1 0.1,0.1 0.4,1.4 -1.5,3.1 -4.3,3.9 -2.8,0.8 -5.3,0.4 -5.7,-1 -0.1,-0.3 0.5,-0.5 0.5,-0.5"
   id="path318" />
	</g>
	<g
   id="g324">
		<path
   class="st6"
   d="m 12.4,66.9 c 0.2,0.4 0.9,0.9 1.7,1 0.9,0.1 2.1,0 3.3,-0.3 2.5,-0.7 4.1,-2 3.9,-3.3 v -0.4 c 0.2,0.1 0.2,0.1 0.4,0.2 0,0 0.1,0.1 0.1,0.1 0.4,1.4 -1.5,3.1 -4.3,3.9 -2.8,0.8 -5.3,0.4 -5.7,-1 -0.1,-0.3 0.5,-0.5 0.5,-0.5"
   id="path322" />
	</g>
	<g
   id="g328">
		<path
   class="st6"
   d="m 12.4,72.5 c 0.2,0.4 0.9,0.9 1.7,1 0.9,0.1 2.1,0 3.3,-0.3 2.5,-0.7 4.1,-2 3.9,-3.3 v -0.4 c 0.2,0.1 0.2,0.1 0.4,0.2 0,0 0.1,0.1 0.1,0.1 0.4,1.4 -1.5,3.1 -4.3,3.9 -2.8,0.8 -5.3,0.4 -5.7,-1 -0.1,-0.3 0.5,-0.5 0.5,-0.5"
   id="path326" />
	</g>
	<g
   id="g332">
		<path
   class="st6"
   d="m 12.4,78.1 c 0.2,0.4 0.9,0.9 1.7,1 0.9,0.1 2.1,0 3.3,-0.3 2.5,-0.7 4.1,-2 3.9,-3.3 v -0.4 c 0.2,0.1 0.2,0.1 0.4,0.2 0,0 0.1,0.1 0.1,0.1 0.4,1.4 -1.5,3.1 -4.3,3.9 -2.8,0.8 -5.3,0.4 -5.7,-1 -0.1,-0.3 0.5,-0.5 0.5,-0.5"
   id="path330" />
	</g>
	<g
   id="g336">
		<path
   class="st6"
   d="m 12.4,83.7 c 0.2,0.4 0.9,0.9 1.7,1 0.9,0.1 2.1,0 3.3,-0.3 2.5,-0.7 4.1,-2 3.9,-3.3 v -0.4 c 0.2,0.1 0.2,0.1 0.4,0.2 0,0 0.1,0.1 0.1,0.1 0.4,1.4 -1.5,3.1 -4.3,3.9 -2.8,0.8 -5.3,0.4 -5.7,-1 -0.1,-0.3 0.5,-0.5 0.5,-0.5"
   id="path334" />
	</g>
	<g
   id="g340">
		<path
   class="st6"
   d="m 12.4,89.3 c 0.2,0.4 0.9,0.9 1.7,1 0.9,0.1 2.1,0 3.3,-0.3 2.5,-0.7 4.1,-2 3.9,-3.3 v -0.4 c 0.2,0.1 0.2,0.1 0.4,0.2 0,0 0.1,0.1 0.1,0.1 0.4,1.4 -1.5,3.1 -4.3,3.9 -2.8,0.8 -5.3,0.4 -5.7,-1 -0.1,-0.3 0.5,-0.5 0.5,-0.5"
   id="path338" />
	</g>
	<g
   id="g344">
		<path
   class="st6"
   d="m 12.4,94.9 c 0.2,0.4 0.9,0.9 1.7,1 0.9,0.1 2.1,0 3.3,-0.3 2.5,-0.7 4.1,-2 3.9,-3.3 v -0.4 c 0.2,0.1 0.2,0.1 0.4,0.2 0,0 0.1,0.1 0.1,0.1 0.4,1.4 -1.5,3.1 -4.3,3.9 -2.8,0.8 -5.3,0.4 -5.7,-1 -0.1,-0.3 0.5,-0.5 0.5,-0.5"
   id="path342" />
	</g>
	<g
   id="g348">
		<path
   class="st6"
   d="m 12.4,100.5 c 0.2,0.4 0.9,0.9 1.7,1 0.9,0.1 2.1,0 3.3,-0.3 2.5,-0.7 4.1,-2 3.9,-3.3 v -0.4 c 0.2,0.1 0.2,0.1 0.4,0.2 0,0 0.1,0.1 0.1,0.1 0.4,1.4 -1.5,3.1 -4.3,3.9 -2.8,0.8 -5.3,0.4 -5.7,-1 -0.1,-0.3 0.5,-0.5 0.5,-0.5"
   id="path346" />
	</g>
	<g
   id="g352">
		<path
   class="st6"
   d="m 12.4,106.1 c 0.2,0.4 0.9,0.9 1.7,1 0.9,0.1 2.1,0 3.3,-0.3 2.5,-0.7 4.1,-2 3.9,-3.3 v -0.4 c 0.2,0.1 0.2,0.1 0.4,0.2 0,0 0.1,0.1 0.1,0.1 0.4,1.4 -1.5,3.1 -4.3,3.9 -2.8,0.8 -5.3,0.4 -5.7,-1 -0.1,-0.3 0.5,-0.5 0.5,-0.5"
   id="path350" />
	</g>
	<g
   id="g356">
		<path
   class="st6"
   d="m 12.4,111.7 c 0.2,0.4 0.9,0.9 1.7,1 0.9,0.1 2.1,0 3.3,-0.3 2.5,-0.7 4.1,-2 3.9,-3.3 v -0.4 c 0.2,0.1 0.2,0.1 0.4,0.2 0,0 0.1,0.1 0.1,0.1 0.4,1.4 -1.5,3.1 -4.3,3.9 -2.8,0.8 -5.3,0.4 -5.7,-1 -0.1,-0.3 0.5,-0.5 0.5,-0.5"
   id="path354" />
	</g>
	<path
   class="st5"
   d="M 16.9,45.6"
   id="path358" />
	<path
   class="st5"
   d="M 16.9,52.3"
   id="path360" />
</g>
</svg>
